# AST/ASF file generated using VICON BodyLanguage
# -----------------------------------------------
:version 1.10
:name VICON
:units
  mass 1.0
  length 0.45
  angle deg
:documentation
   .ast/.asf automatically generated from VICON data using
   VICON BodyBuilder and BodyLanguage model FoxedUp or BRILLIANT.MOD
:root
   order TX TY TZ RX RY RZ
   axis XYZ
   position 0 0 0  
   orientation 0 0 0 
:bonedata
  begin
     id 1 
     name lhipjoint
     direction 0.575328 -0.747301 0.332475 
     length 2.40933 
     axis 0 0 0  XYZ
  end
  begin
     id 2 
     name lfemur
     direction 0.34202 -0.939693 0  
     length 7.31453  
     axis 0 0 20  XYZ
    dof rx ry rz
    limits (-160.0 20.0)
           (-70.0 70.0)
           (-60.0 70.0)
  end
  begin
     id 3 
     name ltibia
     direction 0.34202 -0.939693 0   
     length 7.82185   
     axis 0 0 20   XYZ
    dof rx
    limits (-10.0 170.0)
  end
  begin
     id 4 
     name lfoot
     direction 0.0795993 -0.218697 0.972541   
     length 2.19173   
     axis -90 7.62852e-016 20   XYZ
    dof rx rz
    limits (-45.0 90.0)
           (-70.0 20.0)
  end
  begin
     id 5 
     name ltoes
     direction 1.53537e-011 -4.21894e-011 1   
     length 1.10023   
     axis -90 7.62852e-016 20   XYZ
    dof rx
    limits (-90.0 20.0)
  end
  begin
     id 6 
     name rhipjoint
     direction -0.513884 -0.783789 0.348708   
     length 2.29716  
     axis 0 0 0  XYZ 
  end
  begin
     id 7 
     name rfemur
     direction -0.34202 -0.939693 0   
     length 7.59573   
     axis 0 0 -20   XYZ
    dof rx ry rz
    limits (-160.0 20.0)
           (-70.0 70.0)
           (-70.0 60.0)
  end
  begin
     id 8 
     name rtibia
     direction -0.34202 -0.939693 0   
     length 7.66402   
     axis 0 0 -20   XYZ
    dof rx
    limits (-10.0 170.0)
 end
 begin
     id 9 
     name rfoot
     direction -0.137793 -0.378584 0.915253   
     length 2.27056  
     axis -90 -7.62852e-016 -20   XYZ
    dof rx rz
    limits (-45.0 90.0)
           (-20.0 70.0)
  end
  begin
     id 10 
     name rtoes
     direction -1.53493e-011 -4.22159e-011 1   
     length 1.11766   
     axis -90 -7.62852e-016 -20   XYZ
    dof rx
    limits (-90.0 20.0)
  end
  begin
     id 11 
     name lowerback
     direction -0.00732775 0.998356 -0.05685   
     length 2.16513   
     axis 0 0 0   XYZ
    dof rx ry rz
    limits (-20.0 45.0)
           (-30.0 30.0)
           (-30.0 30.0)
  end
  begin
     id 12 
     name upperback
     direction 0.0218081 0.999627 -0.0164647   
     length 2.16755   
     axis 0 0 0   XYZ
    dof rx ry rz
    limits (-20.0 45.0)
           (-30.0 30.0)
           (-30.0 30.0)
  end
  begin
     id 13 
     name thorax
     direction 0.02365 0.999661 0.0108914   
     length 2.16932   
     axis 0 0 0   XYZ
    dof rx ry rz
    limits (-20.0 45.0)
           (-30.0 30.0)
           (-30.0 30.0)
  end
  begin
     id 14 
     name lowerneck
     direction -0.0523929 0.978385 0.200044   
     length 1.63877   
     axis 0 0 0   XYZ
    dof rx ry rz
    limits (-20.0 45.0)
           (-30.0 30.0)
           (-30.0 30.0)
  end
  begin
     id 15 
     name upperneck
     direction 0.0448674 0.981321 -0.187074   
     length 1.69014   
     axis 0 0 0   XYZ
    dof rx ry rz
    limits (-20.0 45.0)
           (-30.0 30.0)
           (-30.0 30.0)
  end
  begin
     id 16
     name head
     direction 0.0199089 0.996118 -0.0857429  
     length 1.70094  
     axis 0 0 0   XYZ
    dof rx ry rz
    limits (-20.0 45.0)
           (-30.0 30.0)
           (-30.0 30.0)
  end
  begin
     id 17 
     name lclavicle
     direction 0.940366 0.30191 -0.156722  
     length 3.37521  
     axis 0 0 0   XYZ
    dof ry rz
    limits (-20.0 10.0)
           (0.0 20.0)
  end
  begin
     id 18 
     name lhumerus
     direction 1 -4.4897e-011 -1.7911e-027   
     length 5.25287   
     axis 180 -30 -90   XYZ
    dof rx ry rz
    limits (-60.0 90.0)
           (-90.0 90.0)
           (-90.0 90.0)
  end
  begin
     id 19
     name lradius
     direction 1 -4.48951e-011 1.04424e-027   
     length 3.51014   
     axis 180 -30 -90   XYZ
    dof rx
    limits (-10.0 170.0)
  end
  begin
     id 20
     name lwrist
     direction 1 -4.48997e-011 -9.5942e-028   
     length 1.75507   
     axis 8.48502e-016 90 90   XYZ
    dof ry
    limits (-180.0 0.0)
 end
  begin
     id 21 
     name lhand
     direction 1 -4.48831e-011 -1.90777e-027   
     length 0.706179   
     axis 1.22306e-015 90 90   XYZ
    dof rx rz
    limits (-90.0 90.0)
           (-45.0 45.0)
  end
  begin
     id 22 
     name lfingers
     direction 1 -4.49108e-011 -3.85244e-027   
     length 0.569339   
     axis 2.44611e-015 90 90   XYZ
    dof rx
    limits (0.0 90.0)
  end
  begin
     id 23
     name lthumb
     direction 0.707107 -6.34953e-011 0.707107   
     length 0.817461   
     axis -90 45 -1.62303e-014   XYZ
    dof rx rz
    limits (-45.0 45.0)
           (-45.0 45.0)
  end
  begin
     id 24 
     name rclavicle
     direction -0.905329 0.382405 -0.184787   
     length 3.30787  
     axis 0 0 0   XYZ 
    dof ry rz
    limits (-10.0 20.0)
           (-20.0 0.0)
  end
  begin
     id 25 
     name rhumerus
     direction -1 -4.48953e-011 -9.15316e-029  
     length 5.28721   
     axis 180 30 90   XYZ
    dof rx ry rz
    limits (-90.0 60.0)
           (-90.0 90.0)
           (-90.0 90.0)
  end
  begin
     id 26 
     name rradius
     direction -1 -4.48987e-011 9.37824e-028   
     length 3.50544   
     axis 180 30 90   XYZ
    dof rx
    limits (-10.0 170.0)
  end
  begin
     id 27 
     name rwrist
     direction -1 -4.48967e-011 -9.58414e-028   
     length 1.75272   
     axis 8.48502e-016 -90 -90   XYZ
    dof ry
    limits (-180.0 0.0)
  end
  begin
     id 28
     name rhand
     direction -1 -4.48904e-011 -1.91266e-027   
     length 0.884996   
     axis 1.22306e-015 -90 -90   XYZ
    dof rx rz
    limits (-90.0 90.0)
           (-45.0 45.0)
  end
  begin
     id 29
     name rfingers
     direction -1 -4.4909e-011 -3.85015e-027   
     length 0.713507   
     axis 2.44611e-015 -90 -90   XYZ
    dof rx
    limits (0.0 90.0)
  end
  begin
     id 30
     name rthumb
     direction -0.707107 -6.34853e-011 0.707107   
     length 1.02446   
     axis -90 -45 1.62303e-014   XYZ
    dof rx rz
    limits (-45.0 45.0)
           (-45.0 45.0)
  end
:hierarchy
  begin
    root lhipjoint rhipjoint lowerback
    lhipjoint lfemur
    lfemur ltibia
    ltibia lfoot
    lfoot ltoes
    rhipjoint rfemur
    rfemur rtibia
    rtibia rfoot
    rfoot rtoes
    lowerback upperback
    upperback thorax
    thorax lowerneck lclavicle rclavicle
    lowerneck upperneck
    upperneck head
    lclavicle lhumerus
    lhumerus lradius
    lradius lwrist
    lwrist lhand lthumb
    lhand lfingers
    rclavicle rhumerus
    rhumerus rradius
    rradius rwrist
    rwrist rhand rthumb
    rhand rfingers
  end

#!OML:ASF F:\twosubjects\two\Thursday\Session 1\justin.ASF
:FULLY-SPECIFIED
:DEGREES
112
root 7.6343 18.1308 2.22054 -169.615 -18.3056 -182.4
lowerback -0.0876859 1.70986 -4.98973
upperback 2.67176 2.28273 -2.00019
thorax 2.68539 0.994147 0.783445
lowerneck -14.0505 -8.30447 -16.743
upperneck 24.7676 -8.86678 0.841289
head 11.2428 -5.80134 1.69604
rclavicle 7.21588e-014 5.1684e-015
rhumerus 37.1751 -13.5245 -69.0146
rradius 60.9517
rwrist 4.35668
rhand -22.1579 21.6805
rfingers 7.12502
rthumb 4.25627 -8.25674
lclavicle 7.21588e-014 5.1684e-015
lhumerus -27.0902 5.46359 75.0822
lradius 39.9867
lwrist 0.195418
lhand -5.32119 38.1039
lfingers 7.12502
lthumb 20.4848 67.0433
rfemur -19.5936 -13.3619 14.4507
rtibia 37.2349
rfoot -22.881 -15.1428
rtoes -5.48018
lfemur -14.3572 7.6836 -23.5317
ltibia 19.7479
lfoot -13.3905 -8.82966
ltoes 0.612938
113
root 7.61677 18.1333 2.20539 -169.716 -18.2942 -182.269
lowerback -0.307419 1.69985 -4.85919
upperback 2.67495 2.28626 -1.97789
thorax 2.8162 0.997646 0.740871
lowerneck -13.7337 -8.35381 -17.1493
upperneck 24.7091 -8.97548 1.07555
head 11.2063 -5.86377 1.83732
rclavicle -7.35503e-014 9.54166e-015
rhumerus 37.2163 -13.526 -69.1862
rradius 60.9314
rwrist 4.38574
rhand -22.4274 21.9498
rfingers 7.12502
rthumb 3.99607 -7.99246
lclavicle -7.35503e-014 9.54166e-015
lhumerus -27.1104 6.05739 74.8721
lradius 39.3432
lwrist -0.364643
lhand -5.02771 38.7069
lfingers 7.12502
lthumb 20.7668 67.6156
rfemur -19.3276 -13.1539 14.6212
rtibia 36.7045
rfoot -22.191 -15.8521
rtoes -3.30997
lfemur -14.2079 7.81119 -23.4145
ltibia 19.7455
lfoot -13.4282 -8.9013
ltoes 0.271635
114
root 7.5996 18.1301 2.19762 -169.901 -18.286 -182.286
lowerback -0.414186 1.67883 -4.83693
upperback 2.80977 2.26601 -2.01366
thorax 3.01925 0.979906 0.696224
lowerneck -13.4976 -8.407 -17.4726
upperneck 24.5387 -9.08647 1.36293
head 11.1406 -5.90203 1.98489
rclavicle -3.35946e-014 4.13472e-014
rhumerus 37.2218 -13.4919 -69.2956
rradius 60.7813
rwrist 4.41191
rhand -22.5724 22.3812
rfingers 7.12502
rthumb 3.85603 -7.5637
lclavicle -3.35946e-014 4.13472e-014
lhumerus -26.958 6.70546 74.6358
lradius 38.5828
lwrist -0.602859
lhand -5.36027 38.3321
lfingers 7.12502
lthumb 20.4472 67.2754
rfemur -18.9343 -12.9677 14.5755
rtibia 36.3801
rfoot -22.0729 -16.6364
rtoes -3.42252
lfemur -13.9137 7.54958 -23.4337
ltibia 19.6952
lfoot -13.4763 -8.54876
ltoes 0.792672
115
root 7.58625 18.1214 2.19646 -170.148 -18.22 -182.397
lowerback -0.301417 1.68829 -4.90137
upperback 2.9225 2.26823 -2.11748
thorax 3.07414 0.973125 0.623088
lowerneck -13.2138 -8.5302 -17.5652
upperneck 24.3712 -9.32632 1.49079
head 11.0591 -5.99665 2.02098
rclavicle -8.94531e-016 5.1684e-014
rhumerus 37.1442 -13.4999 -69.4566
rradius 60.9368
rwrist 4.60847
rhand -22.397 22.0261
rfingers 7.12502
rthumb 4.02544 -7.91557
lclavicle -8.94531e-016 5.1684e-014
lhumerus -26.8836 7.29216 74.3894
lradius 37.8923
lwrist -0.653819
lhand -5.36779 37.8637
lfingers 7.12502
lthumb 20.44 66.8079
rfemur -18.4888 -12.546 14.4023
rtibia 36.2815
rfoot -22.319 -17.3219
rtoes -4.78694
lfemur -13.5281 7.45524 -23.5472
ltibia 19.6007
lfoot -13.4934 -8.41213
ltoes 1.50337
116
root 7.57886 18.1152 2.18947 -170.266 -18.0509 -182.645
lowerback -0.29689 1.72302 -5.15635
upperback 2.98984 2.31251 -2.28205
thorax 3.1371 0.9823 0.596706
lowerneck -12.8798 -8.64135 -17.7616
upperneck 24.1611 -9.57274 1.80014
head 10.9686 -6.08043 2.14069
rclavicle 7.2954e-014 3.18055e-015
rhumerus 37.0568 -13.5006 -69.648
rradius 61.0876
rwrist 4.99875
rhand -22.5563 21.4751
rfingers 7.12502
rthumb 3.87154 -8.46951
lclavicle 7.2954e-014 3.18055e-015
lhumerus -26.967 7.65037 74.0759
lradius 37.5227
lwrist -0.670081
lhand -5.07875 37.8234
lfingers 7.12502
lthumb 20.7178 66.7375
rfemur -18.176 -11.9193 14.1284
rtibia 36.3407
rfoot -22.3221 -17.9672
rtoes -4.94893
lfemur -13.2205 7.66983 -23.7916
ltibia 19.5597
lfoot -13.5359 -8.57172
ltoes 1.74595
117
root 7.56798 18.1095 2.1761 -170.253 -17.9021 -182.979
lowerback -0.527042 1.76527 -5.45438
upperback 3.08092 2.38631 -2.50359
thorax 3.35695 1.00031 0.543487
lowerneck -12.5743 -8.77891 -18.0005
upperneck 23.9624 -9.87021 2.25508
head 10.9048 -6.17317 2.31007
rclavicle 7.11649e-014 -1.31198e-014
rhumerus 37.0796 -13.6226 -69.9715
rradius 61.043
rwrist 5.3131
rhand -22.787 21.1961
rfingers 7.12502
rthumb 3.64877 -8.75239
lclavicle 7.11649e-014 -1.31198e-014
lhumerus -27.0048 7.73233 73.7601
lradius 37.2784
lwrist -0.585388
lhand -5.44973 38.2768
lfingers 7.12502
lthumb 20.3613 67.2293
rfemur -17.9598 -11.5886 13.7409
rtibia 36.409
rfoot -22.3559 -18.1729
rtoes -5.29046
lfemur -13.0673 7.83295 -24.1544
ltibia 19.6414
lfoot -13.6426 -8.6509
ltoes 1.86922
118
root 7.54931 18.1071 2.16881 -170.413 -17.9423 -182.715
lowerback -0.698226 1.79746 -5.02669
upperback 3.20183 2.43693 -2.61783
thorax 3.59798 1.03076 0.196906
lowerneck -12.5418 -8.93791 -17.8172
upperneck 24.0351 -10.1769 2.396
head 10.9532 -6.27877 2.28582
rclavicle 7.15625e-015 2.70347e-014
rhumerus 37.2595 -13.9486 -70.558
rradius 61.0178
rwrist 5.54447
rhand -22.468 20.9156
rfingers 7.12502
rthumb 3.95683 -9.02742
lclavicle 7.15625e-015 2.70347e-014
lhumerus -26.7942 7.9721 73.4513
lradius 36.7622
lwrist -0.563212
lhand -5.23338 38.9056
lfingers 7.12502
lthumb 20.5692 67.8359
rfemur -17.7363 -11.5086 13.981
rtibia 36.3777
rfoot -22.3788 -18.3471
rtoes -6.48189
lfemur -12.9941 7.88911 -23.9321
ltibia 19.7296
lfoot -13.7891 -8.57295
ltoes 1.82366
119
root 7.52953 18.1114 2.16783 -170.559 -18.0603 -182.065
lowerback -0.878069 1.81296 -4.21981
upperback 3.23908 2.46138 -2.57826
thorax 3.76678 1.06851 -0.202723
lowerneck -12.6252 -9.05247 -17.6318
upperneck 24.2562 -10.3802 2.3926
head 11.061 -6.36216 2.21716
rclavicle 4.57205e-014 0
rhumerus 37.5307 -14.35 -71.2347
rradius 60.8819
rwrist 6.1653
rhand -22.2855 21.0414
rfingers 7.12502
rthumb 4.13312 -8.89827
lclavicle 4.57205e-014 0
lhumerus -26.6301 8.32242 73.2267
lradius 36.1384
lwrist -0.577826
lhand -4.7039 39.0819
lfingers 7.12502
lthumb 21.0779 67.9563
rfemur -17.6793 -11.3611 14.6482
rtibia 36.25
rfoot -22.2503 -18.6619
rtoes -7.11309
lfemur -13.0485 7.71718 -23.3258
ltibia 19.7509
lfoot -13.8968 -8.25838
ltoes 0.954964
120
root 7.50878 18.1151 2.16631 -170.45 -18.0713 -181.962
lowerback -1.1665 1.79353 -3.98036
upperback 3.20882 2.45207 -2.60952
thorax 3.90982 1.07213 -0.359593
lowerneck -12.5501 -9.13127 -17.6719
upperneck 24.3626 -10.5041 2.32806
head 11.1 -6.43743 2.17987
rclavicle 9.54166e-015 8.74653e-015
rhumerus 37.677 -14.5588 -71.5908
rradius 60.6425
rwrist 6.75382
rhand -22.4726 21.6933
rfingers 7.12502
rthumb 3.95238 -8.24975
lclavicle 9.54166e-015 8.74653e-015
lhumerus -26.7626 8.34902 73.2622
lradius 35.8107
lwrist 0.149545
lhand -6.5276 39.6226
lfingers 7.12502
lthumb 19.3251 68.6823
rfemur -17.7218 -11.1775 14.6568
rtibia 36.0665
rfoot -22.133 -18.625
rtoes -6.98977
lfemur -13.1743 7.86254 -23.3286
ltibia 19.7573
lfoot -13.9352 -8.36351
ltoes -0.19884
121
root 7.49225 18.1136 2.16635 -170.396 -17.9718 -182.34
lowerback -1.22053 1.8498 -4.28291
upperback 3.11521 2.53317 -2.79037
thorax 3.83763 1.10429 -0.374357
lowerneck -11.9457 -9.19139 -17.4402
upperneck 24.2788 -10.7487 2.13521
head 10.9516 -6.563 2.06497
rclavicle 1.17283e-014 -7.15625e-015
rhumerus 37.4013 -14.7365 -71.6906
rradius 60.4994
rwrist 6.98923
rhand -22.5159 22.2341
rfingers 7.12502
rthumb 3.91059 -7.70975
lclavicle 1.17283e-014 -7.15625e-015
lhumerus -27.2893 7.9192 73.3571
lradius 35.846
lwrist 1.37263
lhand -9.1507 40.5933
lfingers 7.12502
lthumb 16.8014 69.8864
rfemur -17.584 -11.0364 14.1154
rtibia 35.9066
rfoot -22.038 -18.4996
rtoes -6.78599
lfemur -13.0527 8.13032 -23.8029
ltibia 19.7056
lfoot -13.9202 -8.65545
ltoes -0.201926
122
root 7.47891 18.1089 2.16993 -170.575 -17.9163 -182.565
lowerback -0.9975 2.00994 -4.32901
upperback 3.22621 2.72552 -3.0177
thorax 3.83157 1.19259 -0.582148
lowerneck -11.8701 -9.47272 -17.2031
upperneck 24.2744 -11.229 2.23657
head 10.9742 -6.74014 1.99352
rclavicle -5.02925e-014 -2.70347e-014
rhumerus 37.3438 -15.2741 -71.8625
rradius 60.3859
rwrist 7.37839
rhand -22.646 22.4635
rfingers 7.12502
rthumb 3.78493 -7.48265
lclavicle -5.02925e-014 -2.70347e-014
lhumerus -27.4265 7.58527 73.3335
lradius 35.8104
lwrist 2.09742
lhand -10.0737 40.7115
lfingers 7.12502
lthumb 15.9127 70.0778
rfemur -17.2933 -10.9669 13.7566
rtibia 35.8301
rfoot -22.0292 -18.4857
rtoes -6.34647
lfemur -12.6633 7.69592 -24.0363
ltibia 19.532
lfoot -13.8588 -8.21856
ltoes 0.49985
